<svg width="900" height="540" viewBox="0 0 900 540" fill="none" xmlns="http://www.w3.org/2000/svg" role="img" aria-label="Modern urban style placeholder">
  <defs>
    <linearGradient id="bgm" x1="0" y1="0" x2="1" y2="1">
      <stop stop-color="#0A0C0B"/>
      <stop offset="0.55" stop-color="#0F1512"/>
      <stop offset="1" stop-color="#0A0C0B"/>
    </linearGradient>
    <radialGradient id="mGlow" cx="0" cy="0" r="1" gradientUnits="userSpaceOnUse" gradientTransform="translate(660 180) rotate(35) scale(420 320)">
      <stop stop-color="#2AD67C" stop-opacity="0.22"/>
      <stop offset="1" stop-color="#2AD67C" stop-opacity="0"/>
    </radialGradient>
    <linearGradient id="accent" x1="0" y1="0" x2="1" y2="0">
      <stop stop-color="#2AD67C" stop-opacity="0.9"/>
      <stop offset="1" stop-color="#6BFF9E" stop-opacity="0.55"/>
    </linearGradient>
  </defs>
  <rect width="900" height="540" rx="34" fill="url(#bgm)"/>
  <rect width="900" height="540" rx="34" fill="url(#mGlow)"/>
  <path d="M120 160H780" stroke="white" stroke-opacity="0.10" stroke-width="2"/>
  <path d="M140 200H760" stroke="white" stroke-opacity="0.06" stroke-width="2"/>
  <path d="M160 240H740" stroke="white" stroke-opacity="0.08" stroke-width="2"/>
  <path d="M180 280H720" stroke="white" stroke-opacity="0.06" stroke-width="2"/>
  <path d="M200 320H700" stroke="white" stroke-opacity="0.08" stroke-width="2"/>
  <path d="M220 360H680" stroke="white" stroke-opacity="0.06" stroke-width="2"/>

  <!-- Clean geometry -->
  <rect x="190" y="170" width="220" height="170" rx="18" fill="white" fill-opacity="0.04" stroke="white" stroke-opacity="0.10"/>
  <rect x="440" y="210" width="270" height="210" rx="18" fill="white" fill-opacity="0.04" stroke="white" stroke-opacity="0.10"/>
  <path d="M440 250H710" stroke="url(#accent)" stroke-width="2" stroke-linecap="round"/>
  <path d="M190 300H410" stroke="url(#accent)" stroke-width="2" stroke-linecap="round" stroke-opacity="0.65"/>

  <!-- Tag -->
  <rect x="54" y="54" width="240" height="44" rx="22" fill="white" fill-opacity="0.06" stroke="white" stroke-opacity="0.10"/>
  <text x="78" y="83" font-family="Inter, system-ui, sans-serif" font-size="16" fill="#6BFF9E" fill-opacity="0.9">MODERN URBAN</text>
</svg>
