<svg width="900" height="540" viewBox="0 0 900 540" fill="none" xmlns="http://www.w3.org/2000/svg" role="img" aria-label="Mediterranean style placeholder">
  <defs>
    <linearGradient id="bgmed" x1="0" y1="0" x2="1" y2="1">
      <stop stop-color="#0A0C0B"/>
      <stop offset="0.6" stop-color="#0F1512"/>
      <stop offset="1" stop-color="#0A0C0B"/>
    </linearGradient>
    <radialGradient id="medGlow" cx="0" cy="0" r="1" gradientUnits="userSpaceOnUse" gradientTransform="translate(320 200) rotate(28) scale(420 320)">
      <stop stop-color="#2AD67C" stop-opacity="0.18"/>
      <stop offset="1" stop-color="#2AD67C" stop-opacity="0"/>
    </radialGradient>
    <linearGradient id="terr" x1="0" y1="0" x2="1" y2="1">
      <stop stop-color="#1A221E"/>
      <stop offset="1" stop-color="#0F1512"/>
    </linearGradient>
    <linearGradient id="olive" x1="0" y1="0" x2="0" y2="1">
      <stop stop-color="#6BFF9E"/>
      <stop offset="1" stop-color="#1F9D6E"/>
    </linearGradient>
  </defs>
  <rect width="900" height="540" rx="34" fill="url(#bgmed)"/>
  <rect width="900" height="540" rx="34" fill="url(#medGlow)"/>
  <path d="M110 380C220 310 310 310 410 360C520 415 640 420 790 350" stroke="white" stroke-opacity="0.10" stroke-width="2"/>

  <!-- Pots / arches -->
  <path d="M210 410C220 360 270 330 320 350C370 370 380 420 340 450H230C215 445 205 430 210 410Z" fill="url(#terr)" stroke="white" stroke-opacity="0.10"/>
  <path d="M255 365C270 330 300 330 315 365C290 370 280 385 255 365Z" fill="url(#olive)" fill-opacity="0.85"/>
  <path d="M520 420C535 360 590 330 650 355C705 378 710 440 665 468H540C525 462 515 445 520 420Z" fill="url(#terr)" stroke="white" stroke-opacity="0.10"/>
  <path d="M580 372C600 330 635 330 655 372C625 380 605 400 580 372Z" fill="url(#olive)" fill-opacity="0.8"/>

  <!-- Tag -->
  <rect x="54" y="54" width="260" height="44" rx="22" fill="white" fill-opacity="0.06" stroke="white" stroke-opacity="0.10"/>
  <text x="78" y="83" font-family="Inter, system-ui, sans-serif" font-size="16" fill="#6BFF9E" fill-opacity="0.9">MEDITERRANEAN</text>
</svg>
